<svg version="1.2" xmlns="http://www.w3.org/2000/svg" viewBox="0 0 970 250" width="970" height="250">
	<style>
		.s0 { fill: #101010;stroke: #000000;stroke-miterlimit:10 } 
		.s1 { fill: #ffffff } 
	</style>
	<g id="Layer 1">
		<g id="Folder 1">
			<path id="Shape 1" fill-rule="evenodd" class="s0" d="m970-16.82v284.11h-970.39v-284.11z"/>
			<path id="THEPETERMAK" class="s1" aria-label="THEPETERMAK"  d="m221.8 101v-5.4h40.1v5.4h-16.8v42h-6.5v-42zm46.6 42v-47.4h6.4v19.4h23.3v-19.4h6.4v47.4h-6.4v-22.6h-23.3v22.6zm49 0v-47.4h30v5.4h-23.6v14h22.6v5.4h-22.6v17.2h24.1v5.4zm55.5-42.1h-8v17.8h8q4.5 0 6.9-2.3 2.5-2.3 2.5-6.6 0-4.3-2.5-6.6-2.4-2.3-6.9-2.3zm-14.5 42.1v-47.4h14.5q8 0 12 3.6 4.1 3.6 4.1 10.6 0 7-4.1 10.6-4 3.6-12 3.6h-8v19zm39 0v-47.4h29.9v5.4h-23.5v14h22.5v5.4h-22.5v17.2h24.1v5.4zm34.4-42v-5.4h40.1v5.4h-16.8v42h-6.5v-42zm46.6 42v-47.4h30v5.4h-23.6v14h22.6v5.4h-22.6v17.2h24.1v5.4zm63.5-22.2q2.1 0.7 4 3 2 2.3 3.9 6.3l6.6 12.9h-6.9l-6.1-12.2q-2.3-4.7-4.6-6.3-2.2-1.5-6-1.5h-6.9v20h-6.5v-47.4h14.5q8.1 0 12.1 3.4 4 3.4 4 10.3 0 4.4-2.1 7.4-2 2.9-6 4.1zm-8-19.9h-8v16.8h8q4.6 0 7-2.1 2.4-2.2 2.4-6.3 0-4.2-2.4-6.3-2.4-2.1-7-2.1zm30.5 42.1v-47.4h9.6l12.1 32.3 12.1-32.3h9.6v47.4h-6.3v-41.6l-12.2 32.5h-6.4l-12.2-32.5v41.6zm80.5-17.5l-8.7-23.6-8.7 23.6zm-30.4 17.5l18.1-47.4h7.2l18.1 47.4h-6.7l-4.3-12.2h-21.4l-4.3 12.2zm49.9 0v-47.4h6.4v20l21.3-20h8.2l-23.5 22.1 25.2 25.3h-8.4l-22.8-22.8v22.8z"/>
		</g>
	</g>
</svg>